<?xml version="1.0" encoding="utf-8" standalone="no"?>
<!DOCTYPE svg PUBLIC "-//W3C//DTD SVG 1.1//EN"
  "http://www.w3.org/Graphics/SVG/1.1/DTD/svg11.dtd">
<svg xmlns:xlink="http://www.w3.org/1999/xlink" width="472.02375pt" height="218.56pt" viewBox="0 0 472.02375 218.56" xmlns="http://www.w3.org/2000/svg" version="1.1">
 <metadata>
  <rdf:RDF xmlns:dc="http://purl.org/dc/elements/1.1/" xmlns:cc="http://creativecommons.org/ns#" xmlns:rdf="http://www.w3.org/1999/02/22-rdf-syntax-ns#">
   <cc:Work>
    <dc:type rdf:resource="http://purl.org/dc/dcmitype/StillImage"/>
    <dc:date>2026-03-26T20:17:51.639306</dc:date>
    <dc:format>image/svg+xml</dc:format>
    <dc:creator>
     <cc:Agent>
      <dc:title>Matplotlib v3.10.8, https://matplotlib.org/</dc:title>
     </cc:Agent>
    </dc:creator>
   </cc:Work>
  </rdf:RDF>
 </metadata>
 <defs>
  <style type="text/css">*{stroke-linejoin: round; stroke-linecap: butt}</style>
 </defs>
 <g id="figure_1">
  <g id="patch_1">
   <path d="M 0 218.56 
L 472.02375 218.56 
L 472.02375 0 
L 0 0 
L 0 218.56 
z
" style="fill: none"/>
  </g>
  <g id="axes_1">
   <g id="patch_2">
    <path d="M 82.68 136.68 
C 87.453656 136.68 92.032438 134.783406 95.407922 131.407922 
C 98.783406 128.032438 100.68 123.453656 100.68 118.68 
C 100.68 113.906344 98.783406 109.327562 95.407922 105.952078 
C 92.032438 102.576594 87.453656 100.68 82.68 100.68 
C 77.906344 100.68 73.327562 102.576594 69.952078 105.952078 
C 66.576594 109.327562 64.68 113.906344 64.68 118.68 
C 64.68 123.453656 66.576594 128.032438 69.952078 131.407922 
C 73.327562 134.783406 77.906344 136.68 82.68 136.68 
L 82.68 136.68 
z
" clip-path="url(#p498487041f)" style="fill: none; stroke: #000000; stroke-width: 2; stroke-linejoin: miter"/>
   </g>
   <g id="patch_3">
    <path d="M 22.68 76.68 
C 27.453656 76.68 32.032438 74.783406 35.407922 71.407922 
C 38.783406 68.032438 40.68 63.453656 40.68 58.68 
C 40.68 53.906344 38.783406 49.327562 35.407922 45.952078 
C 32.032438 42.576594 27.453656 40.68 22.68 40.68 
C 17.906344 40.68 13.327562 42.576594 9.952078 45.952078 
C 6.576594 49.327562 4.68 53.906344 4.68 58.68 
C 4.68 63.453656 6.576594 68.032438 9.952078 71.407922 
C 13.327562 74.783406 17.906344 76.68 22.68 76.68 
L 22.68 76.68 
z
" clip-path="url(#p498487041f)" style="fill: none; stroke: #000000; stroke-width: 2; stroke-linejoin: miter"/>
   </g>
   <g id="patch_4">
    <path d="M 258.18 147.48 
C 262.68 147.48 262.68 147.48 262.68 147.48 
" clip-path="url(#p498487041f)" style="fill: none; stroke: #000000; stroke-width: 2; stroke-linejoin: miter; stroke-linecap: round"/>
   </g>
   <g id="patch_5">
    <path d="M 253.68 143.88 
L 262.68 147.48 
L 253.68 151.08 
z
" clip-path="url(#p498487041f)"/>
   </g>
   <g id="line2d_1">
    <path d="M 82.68 183.48 
L 82.68 197.88 
L 73.68 197.88 
L 91.68 197.88 
M 76.38 202.2 
L 88.98 202.2 
M 80.88 206.52 
L 84.48 206.52 
" clip-path="url(#p498487041f)" style="fill: none; stroke: #000000; stroke-width: 2; stroke-linecap: round"/>
   </g>
   <g id="line2d_2">
    <path d="M 82.68 172.68 
L 82.68 136.68 
L 82.68 136.68 
M 82.68 100.68 
L 82.68 100.68 
L 82.68 64.68 
" clip-path="url(#p498487041f)" style="fill: none; stroke: #000000; stroke-width: 2; stroke-linecap: round"/>
   </g>
   <g id="line2d_3">
    <path d="M 86.28 127.68 
L 79.08 127.68 
" clip-path="url(#p498487041f)" style="fill: none; stroke: #000000; stroke-width: 2; stroke-linecap: round"/>
   </g>
   <g id="line2d_4">
    <path d="M 82.68 113.28 
L 82.68 106.08 
" clip-path="url(#p498487041f)" style="fill: none; stroke: #000000; stroke-width: 2; stroke-linecap: round"/>
   </g>
   <g id="line2d_5">
    <path d="M 86.28 109.68 
L 79.08 109.68 
" clip-path="url(#p498487041f)" style="fill: none; stroke: #000000; stroke-width: 2; stroke-linecap: round"/>
   </g>
   <g id="line2d_6">
    <path d="M 82.68 64.68 
L 118.68 64.68 
L 154.68 64.68 
" clip-path="url(#p498487041f)" style="fill: none; stroke: #000000; stroke-width: 2; stroke-linecap: round"/>
   </g>
   <g id="line2d_7">
    <path d="M 175.68 42.18 
L 175.68 45.18 
" clip-path="url(#p498487041f)" style="fill: none; stroke: #000000; stroke-width: 2; stroke-linecap: round"/>
   </g>
   <g id="line2d_8">
    <path d="M 175.68 51.18 
L 175.68 54.18 
" clip-path="url(#p498487041f)" style="fill: none; stroke: #000000; stroke-width: 2; stroke-linecap: round"/>
   </g>
   <g id="line2d_9">
    <path d="M 175.68 60.18 
L 175.68 63.18 
" clip-path="url(#p498487041f)" style="fill: none; stroke: #000000; stroke-width: 2; stroke-linecap: round"/>
   </g>
   <g id="line2d_10">
    <path d="M 184.68 43.68 
L 184.68 22.68 
" clip-path="url(#p498487041f)" style="fill: none; stroke: #000000; stroke-width: 2; stroke-linecap: round"/>
   </g>
   <g id="line2d_11">
    <path d="M 175.68 43.68 
L 184.68 43.68 
" clip-path="url(#p498487041f)" style="fill: none; stroke: #000000; stroke-width: 2; stroke-linecap: round"/>
   </g>
   <g id="line2d_12">
    <path d="M 184.68 82.68 
L 184.68 61.68 
" clip-path="url(#p498487041f)" style="fill: none; stroke: #000000; stroke-width: 2; stroke-linecap: round"/>
   </g>
   <g id="line2d_13">
    <path d="M 175.68 61.68 
L 184.68 61.68 
" clip-path="url(#p498487041f)" style="fill: none; stroke: #000000; stroke-width: 2; stroke-linecap: round"/>
   </g>
   <g id="line2d_14">
    <path d="M 154.68 64.68 
L 169.68 64.68 
" clip-path="url(#p498487041f)" style="fill: none; stroke: #000000; stroke-width: 2; stroke-linecap: round"/>
   </g>
   <g id="line2d_15">
    <path d="M 169.68 64.68 
L 169.68 40.68 
" clip-path="url(#p498487041f)" style="fill: none; stroke: #000000; stroke-width: 2; stroke-linecap: round"/>
   </g>
   <g id="line2d_16">
    <path d="M 181.68 52.68 
L 184.68 52.68 
" clip-path="url(#p498487041f)" style="fill: none; stroke: #000000; stroke-width: 2; stroke-linecap: round"/>
   </g>
   <g id="patch_6">
    <path d="M 181.68 55.68 
L 175.68 52.68 
L 181.68 49.68 
z
" clip-path="url(#p498487041f)"/>
   </g>
   <g id="line2d_17">
    <path d="M 184.68 52.68 
L 184.68 61.68 
" clip-path="url(#p498487041f)" style="fill: none; stroke: #000000; stroke-width: 2; stroke-linecap: round"/>
   </g>
   <g id="line2d_18">
    <path d="M 184.68 22.68 
L 184.68 13.68 
L 184.68 4.68 
" clip-path="url(#p498487041f)" style="fill: none; stroke: #000000; stroke-width: 2; stroke-linecap: round"/>
   </g>
   <g id="line2d_19">
    <path d="M 184.68 4.68 
L 103.68 4.68 
L 22.68 4.68 
" clip-path="url(#p498487041f)" style="fill: none; stroke: #000000; stroke-width: 2; stroke-linecap: round"/>
   </g>
   <g id="line2d_20">
    <path d="M 22.68 4.68 
L 22.68 40.68 
L 22.68 40.68 
M 22.68 76.68 
L 22.68 76.68 
L 22.68 112.68 
" clip-path="url(#p498487041f)" style="fill: none; stroke: #000000; stroke-width: 2; stroke-linecap: round"/>
   </g>
   <g id="line2d_21">
    <path d="M 26.28 67.68 
L 19.08 67.68 
" clip-path="url(#p498487041f)" style="fill: none; stroke: #000000; stroke-width: 2; stroke-linecap: round"/>
   </g>
   <g id="line2d_22">
    <path d="M 22.68 46.08 
L 22.68 53.28 
" clip-path="url(#p498487041f)" style="fill: none; stroke: #000000; stroke-width: 2; stroke-linecap: round"/>
   </g>
   <g id="line2d_23">
    <path d="M 26.28 49.68 
L 19.08 49.68 
" clip-path="url(#p498487041f)" style="fill: none; stroke: #000000; stroke-width: 2; stroke-linecap: round"/>
   </g>
   <g id="line2d_24">
    <path d="M 22.68 112.68 
L 22.68 118.08 
L 22.68 123.48 
" clip-path="url(#p498487041f)" style="fill: none; stroke: #000000; stroke-width: 2; stroke-linecap: round"/>
   </g>
   <g id="line2d_25">
    <path d="M 22.68 123.48 
L 22.68 137.88 
L 13.68 137.88 
L 31.68 137.88 
M 16.38 142.2 
L 28.98 142.2 
M 20.88 146.52 
L 24.48 146.52 
" clip-path="url(#p498487041f)" style="fill: none; stroke: #000000; stroke-width: 2; stroke-linecap: round"/>
   </g>
   <g id="line2d_26">
    <path d="M 184.68 82.68 
L 184.68 91.68 
L 184.68 100.68 
" clip-path="url(#p498487041f)" style="fill: none; stroke: #000000; stroke-width: 2; stroke-linecap: round"/>
   </g>
   <g id="line2d_27">
    <path d="M 184.68 100.68 
L 184.68 115.08 
L 175.68 115.08 
L 193.68 115.08 
M 178.38 119.4 
L 190.98 119.4 
M 182.88 123.72 
L 186.48 123.72 
" clip-path="url(#p498487041f)" style="fill: none; stroke: #000000; stroke-width: 2; stroke-linecap: round"/>
   </g>
   <g id="text_1">
    <!-- Vgs -->
    <g transform="translate(70.721016 186.157969) scale(0.13 -0.13)">
     <defs>
      <path id="DejaVuSans-56" d="M 1831 0 
L 50 4666 
L 709 4666 
L 2188 738 
L 3669 4666 
L 4325 4666 
L 2547 0 
L 1831 0 
z
" transform="scale(0.015625)"/>
      <path id="DejaVuSans-67" d="M 2906 1791 
Q 2906 2416 2648 2759 
Q 2391 3103 1925 3103 
Q 1463 3103 1205 2759 
Q 947 2416 947 1791 
Q 947 1169 1205 825 
Q 1463 481 1925 481 
Q 2391 481 2648 825 
Q 2906 1169 2906 1791 
z
M 3481 434 
Q 3481 -459 3084 -895 
Q 2688 -1331 1869 -1331 
Q 1566 -1331 1297 -1286 
Q 1028 -1241 775 -1147 
L 775 -588 
Q 1028 -725 1275 -790 
Q 1522 -856 1778 -856 
Q 2344 -856 2625 -561 
Q 2906 -266 2906 331 
L 2906 616 
Q 2728 306 2450 153 
Q 2172 0 1784 0 
Q 1141 0 747 490 
Q 353 981 353 1791 
Q 353 2603 747 3093 
Q 1141 3584 1784 3584 
Q 2172 3584 2450 3431 
Q 2728 3278 2906 2969 
L 2906 3500 
L 3481 3500 
L 3481 434 
z
" transform="scale(0.015625)"/>
      <path id="DejaVuSans-73" d="M 2834 3397 
L 2834 2853 
Q 2591 2978 2328 3040 
Q 2066 3103 1784 3103 
Q 1356 3103 1142 2972 
Q 928 2841 928 2578 
Q 928 2378 1081 2264 
Q 1234 2150 1697 2047 
L 1894 2003 
Q 2506 1872 2764 1633 
Q 3022 1394 3022 966 
Q 3022 478 2636 193 
Q 2250 -91 1575 -91 
Q 1294 -91 989 -36 
Q 684 19 347 128 
L 347 722 
Q 666 556 975 473 
Q 1284 391 1588 391 
Q 1994 391 2212 530 
Q 2431 669 2431 922 
Q 2431 1156 2273 1281 
Q 2116 1406 1581 1522 
L 1381 1569 
Q 847 1681 609 1914 
Q 372 2147 372 2553 
Q 372 3047 722 3315 
Q 1072 3584 1716 3584 
Q 2034 3584 2315 3537 
Q 2597 3491 2834 3397 
z
" transform="scale(0.015625)"/>
     </defs>
     <use xlink:href="#DejaVuSans-56"/>
     <use xlink:href="#DejaVuSans-67" transform="translate(68.408203 0)"/>
     <use xlink:href="#DejaVuSans-73" transform="translate(131.884766 0)"/>
    </g>
   </g>
   <g id="text_2">
    <!-- M1 -->
    <g transform="translate(191.88 56.267187) scale(0.13 -0.13)">
     <defs>
      <path id="DejaVuSans-4d" d="M 628 4666 
L 1569 4666 
L 2759 1491 
L 3956 4666 
L 4897 4666 
L 4897 0 
L 4281 0 
L 4281 4097 
L 3078 897 
L 2444 897 
L 1241 4097 
L 1241 0 
L 628 0 
L 628 4666 
z
" transform="scale(0.015625)"/>
      <path id="DejaVuSans-31" d="M 794 531 
L 1825 531 
L 1825 4091 
L 703 3866 
L 703 4441 
L 1819 4666 
L 2450 4666 
L 2450 531 
L 3481 531 
L 3481 0 
L 794 0 
L 794 531 
z
" transform="scale(0.015625)"/>
     </defs>
     <use xlink:href="#DejaVuSans-4d"/>
     <use xlink:href="#DejaVuSans-31" transform="translate(86.279297 0)"/>
    </g>
   </g>
   <g id="text_3">
    <!-- Vds -->
    <g transform="translate(10.721016 126.157969) scale(0.13 -0.13)">
     <defs>
      <path id="DejaVuSans-64" d="M 2906 2969 
L 2906 4863 
L 3481 4863 
L 3481 0 
L 2906 0 
L 2906 525 
Q 2725 213 2448 61 
Q 2172 -91 1784 -91 
Q 1150 -91 751 415 
Q 353 922 353 1747 
Q 353 2572 751 3078 
Q 1150 3584 1784 3584 
Q 2172 3584 2448 3432 
Q 2725 3281 2906 2969 
z
M 947 1747 
Q 947 1113 1208 752 
Q 1469 391 1925 391 
Q 2381 391 2643 752 
Q 2906 1113 2906 1747 
Q 2906 2381 2643 2742 
Q 2381 3103 1925 3103 
Q 1469 3103 1208 2742 
Q 947 2381 947 1747 
z
" transform="scale(0.015625)"/>
     </defs>
     <use xlink:href="#DejaVuSans-56"/>
     <use xlink:href="#DejaVuSans-64" transform="translate(68.408203 0)"/>
     <use xlink:href="#DejaVuSans-73" transform="translate(131.884766 0)"/>
    </g>
   </g>
   <g id="text_4">
    <!-- .model MyNMOS NMOS -->
    <g transform="translate(262.68 154.517812) scale(0.14 -0.14)">
     <defs>
      <path id="DejaVuSans-2e" d="M 684 794 
L 1344 794 
L 1344 0 
L 684 0 
L 684 794 
z
" transform="scale(0.015625)"/>
      <path id="DejaVuSans-6d" d="M 3328 2828 
Q 3544 3216 3844 3400 
Q 4144 3584 4550 3584 
Q 5097 3584 5394 3201 
Q 5691 2819 5691 2113 
L 5691 0 
L 5113 0 
L 5113 2094 
Q 5113 2597 4934 2840 
Q 4756 3084 4391 3084 
Q 3944 3084 3684 2787 
Q 3425 2491 3425 1978 
L 3425 0 
L 2847 0 
L 2847 2094 
Q 2847 2600 2669 2842 
Q 2491 3084 2119 3084 
Q 1678 3084 1418 2786 
Q 1159 2488 1159 1978 
L 1159 0 
L 581 0 
L 581 3500 
L 1159 3500 
L 1159 2956 
Q 1356 3278 1631 3431 
Q 1906 3584 2284 3584 
Q 2666 3584 2933 3390 
Q 3200 3197 3328 2828 
z
" transform="scale(0.015625)"/>
      <path id="DejaVuSans-6f" d="M 1959 3097 
Q 1497 3097 1228 2736 
Q 959 2375 959 1747 
Q 959 1119 1226 758 
Q 1494 397 1959 397 
Q 2419 397 2687 759 
Q 2956 1122 2956 1747 
Q 2956 2369 2687 2733 
Q 2419 3097 1959 3097 
z
M 1959 3584 
Q 2709 3584 3137 3096 
Q 3566 2609 3566 1747 
Q 3566 888 3137 398 
Q 2709 -91 1959 -91 
Q 1206 -91 779 398 
Q 353 888 353 1747 
Q 353 2609 779 3096 
Q 1206 3584 1959 3584 
z
" transform="scale(0.015625)"/>
      <path id="DejaVuSans-65" d="M 3597 1894 
L 3597 1613 
L 953 1613 
Q 991 1019 1311 708 
Q 1631 397 2203 397 
Q 2534 397 2845 478 
Q 3156 559 3463 722 
L 3463 178 
Q 3153 47 2828 -22 
Q 2503 -91 2169 -91 
Q 1331 -91 842 396 
Q 353 884 353 1716 
Q 353 2575 817 3079 
Q 1281 3584 2069 3584 
Q 2775 3584 3186 3129 
Q 3597 2675 3597 1894 
z
M 3022 2063 
Q 3016 2534 2758 2815 
Q 2500 3097 2075 3097 
Q 1594 3097 1305 2825 
Q 1016 2553 972 2059 
L 3022 2063 
z
" transform="scale(0.015625)"/>
      <path id="DejaVuSans-6c" d="M 603 4863 
L 1178 4863 
L 1178 0 
L 603 0 
L 603 4863 
z
" transform="scale(0.015625)"/>
      <path id="DejaVuSans-20" transform="scale(0.015625)"/>
      <path id="DejaVuSans-79" d="M 2059 -325 
Q 1816 -950 1584 -1140 
Q 1353 -1331 966 -1331 
L 506 -1331 
L 506 -850 
L 844 -850 
Q 1081 -850 1212 -737 
Q 1344 -625 1503 -206 
L 1606 56 
L 191 3500 
L 800 3500 
L 1894 763 
L 2988 3500 
L 3597 3500 
L 2059 -325 
z
" transform="scale(0.015625)"/>
      <path id="DejaVuSans-4e" d="M 628 4666 
L 1478 4666 
L 3547 763 
L 3547 4666 
L 4159 4666 
L 4159 0 
L 3309 0 
L 1241 3903 
L 1241 0 
L 628 0 
L 628 4666 
z
" transform="scale(0.015625)"/>
      <path id="DejaVuSans-4f" d="M 2522 4238 
Q 1834 4238 1429 3725 
Q 1025 3213 1025 2328 
Q 1025 1447 1429 934 
Q 1834 422 2522 422 
Q 3209 422 3611 934 
Q 4013 1447 4013 2328 
Q 4013 3213 3611 3725 
Q 3209 4238 2522 4238 
z
M 2522 4750 
Q 3503 4750 4090 4092 
Q 4678 3434 4678 2328 
Q 4678 1225 4090 567 
Q 3503 -91 2522 -91 
Q 1538 -91 948 565 
Q 359 1222 359 2328 
Q 359 3434 948 4092 
Q 1538 4750 2522 4750 
z
" transform="scale(0.015625)"/>
      <path id="DejaVuSans-53" d="M 3425 4513 
L 3425 3897 
Q 3066 4069 2747 4153 
Q 2428 4238 2131 4238 
Q 1616 4238 1336 4038 
Q 1056 3838 1056 3469 
Q 1056 3159 1242 3001 
Q 1428 2844 1947 2747 
L 2328 2669 
Q 3034 2534 3370 2195 
Q 3706 1856 3706 1288 
Q 3706 609 3251 259 
Q 2797 -91 1919 -91 
Q 1588 -91 1214 -16 
Q 841 59 441 206 
L 441 856 
Q 825 641 1194 531 
Q 1563 422 1919 422 
Q 2459 422 2753 634 
Q 3047 847 3047 1241 
Q 3047 1584 2836 1778 
Q 2625 1972 2144 2069 
L 1759 2144 
Q 1053 2284 737 2584 
Q 422 2884 422 3419 
Q 422 4038 858 4394 
Q 1294 4750 2059 4750 
Q 2388 4750 2728 4690 
Q 3069 4631 3425 4513 
z
" transform="scale(0.015625)"/>
     </defs>
     <use xlink:href="#DejaVuSans-2e"/>
     <use xlink:href="#DejaVuSans-6d" transform="translate(31.787109 0)"/>
     <use xlink:href="#DejaVuSans-6f" transform="translate(129.199219 0)"/>
     <use xlink:href="#DejaVuSans-64" transform="translate(190.380859 0)"/>
     <use xlink:href="#DejaVuSans-65" transform="translate(253.857422 0)"/>
     <use xlink:href="#DejaVuSans-6c" transform="translate(315.380859 0)"/>
     <use xlink:href="#DejaVuSans-20" transform="translate(343.164062 0)"/>
     <use xlink:href="#DejaVuSans-4d" transform="translate(374.951172 0)"/>
     <use xlink:href="#DejaVuSans-79" transform="translate(461.230469 0)"/>
     <use xlink:href="#DejaVuSans-4e" transform="translate(520.410156 0)"/>
     <use xlink:href="#DejaVuSans-4d" transform="translate(595.214844 0)"/>
     <use xlink:href="#DejaVuSans-4f" transform="translate(681.494141 0)"/>
     <use xlink:href="#DejaVuSans-53" transform="translate(760.205078 0)"/>
     <use xlink:href="#DejaVuSans-20" transform="translate(823.681641 0)"/>
     <use xlink:href="#DejaVuSans-4e" transform="translate(855.46875 0)"/>
     <use xlink:href="#DejaVuSans-4d" transform="translate(930.273438 0)"/>
     <use xlink:href="#DejaVuSans-4f" transform="translate(1016.552734 0)"/>
     <use xlink:href="#DejaVuSans-53" transform="translate(1095.263672 0)"/>
    </g>
    <!--   (Level=1 Vto=0.5 Kp=200u) -->
    <g transform="translate(262.68 168.067187) scale(0.14 -0.14)">
     <defs>
      <path id="DejaVuSans-28" d="M 1984 4856 
Q 1566 4138 1362 3434 
Q 1159 2731 1159 2009 
Q 1159 1288 1364 580 
Q 1569 -128 1984 -844 
L 1484 -844 
Q 1016 -109 783 600 
Q 550 1309 550 2009 
Q 550 2706 781 3412 
Q 1013 4119 1484 4856 
L 1984 4856 
z
" transform="scale(0.015625)"/>
      <path id="DejaVuSans-4c" d="M 628 4666 
L 1259 4666 
L 1259 531 
L 3531 531 
L 3531 0 
L 628 0 
L 628 4666 
z
" transform="scale(0.015625)"/>
      <path id="DejaVuSans-76" d="M 191 3500 
L 800 3500 
L 1894 563 
L 2988 3500 
L 3597 3500 
L 2284 0 
L 1503 0 
L 191 3500 
z
" transform="scale(0.015625)"/>
      <path id="DejaVuSans-3d" d="M 678 2906 
L 4684 2906 
L 4684 2381 
L 678 2381 
L 678 2906 
z
M 678 1631 
L 4684 1631 
L 4684 1100 
L 678 1100 
L 678 1631 
z
" transform="scale(0.015625)"/>
      <path id="DejaVuSans-74" d="M 1172 4494 
L 1172 3500 
L 2356 3500 
L 2356 3053 
L 1172 3053 
L 1172 1153 
Q 1172 725 1289 603 
Q 1406 481 1766 481 
L 2356 481 
L 2356 0 
L 1766 0 
Q 1100 0 847 248 
Q 594 497 594 1153 
L 594 3053 
L 172 3053 
L 172 3500 
L 594 3500 
L 594 4494 
L 1172 4494 
z
" transform="scale(0.015625)"/>
      <path id="DejaVuSans-30" d="M 2034 4250 
Q 1547 4250 1301 3770 
Q 1056 3291 1056 2328 
Q 1056 1369 1301 889 
Q 1547 409 2034 409 
Q 2525 409 2770 889 
Q 3016 1369 3016 2328 
Q 3016 3291 2770 3770 
Q 2525 4250 2034 4250 
z
M 2034 4750 
Q 2819 4750 3233 4129 
Q 3647 3509 3647 2328 
Q 3647 1150 3233 529 
Q 2819 -91 2034 -91 
Q 1250 -91 836 529 
Q 422 1150 422 2328 
Q 422 3509 836 4129 
Q 1250 4750 2034 4750 
z
" transform="scale(0.015625)"/>
      <path id="DejaVuSans-35" d="M 691 4666 
L 3169 4666 
L 3169 4134 
L 1269 4134 
L 1269 2991 
Q 1406 3038 1543 3061 
Q 1681 3084 1819 3084 
Q 2600 3084 3056 2656 
Q 3513 2228 3513 1497 
Q 3513 744 3044 326 
Q 2575 -91 1722 -91 
Q 1428 -91 1123 -41 
Q 819 9 494 109 
L 494 744 
Q 775 591 1075 516 
Q 1375 441 1709 441 
Q 2250 441 2565 725 
Q 2881 1009 2881 1497 
Q 2881 1984 2565 2268 
Q 2250 2553 1709 2553 
Q 1456 2553 1204 2497 
Q 953 2441 691 2322 
L 691 4666 
z
" transform="scale(0.015625)"/>
      <path id="DejaVuSans-4b" d="M 628 4666 
L 1259 4666 
L 1259 2694 
L 3353 4666 
L 4166 4666 
L 1850 2491 
L 4331 0 
L 3500 0 
L 1259 2247 
L 1259 0 
L 628 0 
L 628 4666 
z
" transform="scale(0.015625)"/>
      <path id="DejaVuSans-70" d="M 1159 525 
L 1159 -1331 
L 581 -1331 
L 581 3500 
L 1159 3500 
L 1159 2969 
Q 1341 3281 1617 3432 
Q 1894 3584 2278 3584 
Q 2916 3584 3314 3078 
Q 3713 2572 3713 1747 
Q 3713 922 3314 415 
Q 2916 -91 2278 -91 
Q 1894 -91 1617 61 
Q 1341 213 1159 525 
z
M 3116 1747 
Q 3116 2381 2855 2742 
Q 2594 3103 2138 3103 
Q 1681 3103 1420 2742 
Q 1159 2381 1159 1747 
Q 1159 1113 1420 752 
Q 1681 391 2138 391 
Q 2594 391 2855 752 
Q 3116 1113 3116 1747 
z
" transform="scale(0.015625)"/>
      <path id="DejaVuSans-32" d="M 1228 531 
L 3431 531 
L 3431 0 
L 469 0 
L 469 531 
Q 828 903 1448 1529 
Q 2069 2156 2228 2338 
Q 2531 2678 2651 2914 
Q 2772 3150 2772 3378 
Q 2772 3750 2511 3984 
Q 2250 4219 1831 4219 
Q 1534 4219 1204 4116 
Q 875 4013 500 3803 
L 500 4441 
Q 881 4594 1212 4672 
Q 1544 4750 1819 4750 
Q 2544 4750 2975 4387 
Q 3406 4025 3406 3419 
Q 3406 3131 3298 2873 
Q 3191 2616 2906 2266 
Q 2828 2175 2409 1742 
Q 1991 1309 1228 531 
z
" transform="scale(0.015625)"/>
      <path id="DejaVuSans-75" d="M 544 1381 
L 544 3500 
L 1119 3500 
L 1119 1403 
Q 1119 906 1312 657 
Q 1506 409 1894 409 
Q 2359 409 2629 706 
Q 2900 1003 2900 1516 
L 2900 3500 
L 3475 3500 
L 3475 0 
L 2900 0 
L 2900 538 
Q 2691 219 2414 64 
Q 2138 -91 1772 -91 
Q 1169 -91 856 284 
Q 544 659 544 1381 
z
M 1991 3584 
L 1991 3584 
z
" transform="scale(0.015625)"/>
      <path id="DejaVuSans-29" d="M 513 4856 
L 1013 4856 
Q 1481 4119 1714 3412 
Q 1947 2706 1947 2009 
Q 1947 1309 1714 600 
Q 1481 -109 1013 -844 
L 513 -844 
Q 928 -128 1133 580 
Q 1338 1288 1338 2009 
Q 1338 2731 1133 3434 
Q 928 4138 513 4856 
z
" transform="scale(0.015625)"/>
     </defs>
     <use xlink:href="#DejaVuSans-20"/>
     <use xlink:href="#DejaVuSans-20" transform="translate(31.787109 0)"/>
     <use xlink:href="#DejaVuSans-28" transform="translate(63.574219 0)"/>
     <use xlink:href="#DejaVuSans-4c" transform="translate(102.587891 0)"/>
     <use xlink:href="#DejaVuSans-65" transform="translate(156.550781 0)"/>
     <use xlink:href="#DejaVuSans-76" transform="translate(218.074219 0)"/>
     <use xlink:href="#DejaVuSans-65" transform="translate(277.253906 0)"/>
     <use xlink:href="#DejaVuSans-6c" transform="translate(338.777344 0)"/>
     <use xlink:href="#DejaVuSans-3d" transform="translate(366.560547 0)"/>
     <use xlink:href="#DejaVuSans-31" transform="translate(450.349609 0)"/>
     <use xlink:href="#DejaVuSans-20" transform="translate(513.972656 0)"/>
     <use xlink:href="#DejaVuSans-56" transform="translate(545.759766 0)"/>
     <use xlink:href="#DejaVuSans-74" transform="translate(614.167969 0)"/>
     <use xlink:href="#DejaVuSans-6f" transform="translate(653.376953 0)"/>
     <use xlink:href="#DejaVuSans-3d" transform="translate(714.558594 0)"/>
     <use xlink:href="#DejaVuSans-30" transform="translate(798.347656 0)"/>
     <use xlink:href="#DejaVuSans-2e" transform="translate(861.970703 0)"/>
     <use xlink:href="#DejaVuSans-35" transform="translate(893.757812 0)"/>
     <use xlink:href="#DejaVuSans-20" transform="translate(957.380859 0)"/>
     <use xlink:href="#DejaVuSans-4b" transform="translate(989.167969 0)"/>
     <use xlink:href="#DejaVuSans-70" transform="translate(1054.744141 0)"/>
     <use xlink:href="#DejaVuSans-3d" transform="translate(1118.220703 0)"/>
     <use xlink:href="#DejaVuSans-32" transform="translate(1202.009766 0)"/>
     <use xlink:href="#DejaVuSans-30" transform="translate(1265.632812 0)"/>
     <use xlink:href="#DejaVuSans-30" transform="translate(1329.255859 0)"/>
     <use xlink:href="#DejaVuSans-75" transform="translate(1392.878906 0)"/>
     <use xlink:href="#DejaVuSans-29" transform="translate(1456.257812 0)"/>
    </g>
    <!--  -->
    <g transform="translate(262.68 181.616562) scale(0.14 -0.14)"/>
    <!-- .dc Vds 0 3.3 0.01 -->
    <g transform="translate(262.68 195.165937) scale(0.14 -0.14)">
     <defs>
      <path id="DejaVuSans-63" d="M 3122 3366 
L 3122 2828 
Q 2878 2963 2633 3030 
Q 2388 3097 2138 3097 
Q 1578 3097 1268 2742 
Q 959 2388 959 1747 
Q 959 1106 1268 751 
Q 1578 397 2138 397 
Q 2388 397 2633 464 
Q 2878 531 3122 666 
L 3122 134 
Q 2881 22 2623 -34 
Q 2366 -91 2075 -91 
Q 1284 -91 818 406 
Q 353 903 353 1747 
Q 353 2603 823 3093 
Q 1294 3584 2113 3584 
Q 2378 3584 2631 3529 
Q 2884 3475 3122 3366 
z
" transform="scale(0.015625)"/>
      <path id="DejaVuSans-33" d="M 2597 2516 
Q 3050 2419 3304 2112 
Q 3559 1806 3559 1356 
Q 3559 666 3084 287 
Q 2609 -91 1734 -91 
Q 1441 -91 1130 -33 
Q 819 25 488 141 
L 488 750 
Q 750 597 1062 519 
Q 1375 441 1716 441 
Q 2309 441 2620 675 
Q 2931 909 2931 1356 
Q 2931 1769 2642 2001 
Q 2353 2234 1838 2234 
L 1294 2234 
L 1294 2753 
L 1863 2753 
Q 2328 2753 2575 2939 
Q 2822 3125 2822 3475 
Q 2822 3834 2567 4026 
Q 2313 4219 1838 4219 
Q 1578 4219 1281 4162 
Q 984 4106 628 3988 
L 628 4550 
Q 988 4650 1302 4700 
Q 1616 4750 1894 4750 
Q 2613 4750 3031 4423 
Q 3450 4097 3450 3541 
Q 3450 3153 3228 2886 
Q 3006 2619 2597 2516 
z
" transform="scale(0.015625)"/>
     </defs>
     <use xlink:href="#DejaVuSans-2e"/>
     <use xlink:href="#DejaVuSans-64" transform="translate(31.787109 0)"/>
     <use xlink:href="#DejaVuSans-63" transform="translate(95.263672 0)"/>
     <use xlink:href="#DejaVuSans-20" transform="translate(150.244141 0)"/>
     <use xlink:href="#DejaVuSans-56" transform="translate(182.03125 0)"/>
     <use xlink:href="#DejaVuSans-64" transform="translate(250.439453 0)"/>
     <use xlink:href="#DejaVuSans-73" transform="translate(313.916016 0)"/>
     <use xlink:href="#DejaVuSans-20" transform="translate(366.015625 0)"/>
     <use xlink:href="#DejaVuSans-30" transform="translate(397.802734 0)"/>
     <use xlink:href="#DejaVuSans-20" transform="translate(461.425781 0)"/>
     <use xlink:href="#DejaVuSans-33" transform="translate(493.212891 0)"/>
     <use xlink:href="#DejaVuSans-2e" transform="translate(556.835938 0)"/>
     <use xlink:href="#DejaVuSans-33" transform="translate(588.623047 0)"/>
     <use xlink:href="#DejaVuSans-20" transform="translate(652.246094 0)"/>
     <use xlink:href="#DejaVuSans-30" transform="translate(684.033203 0)"/>
     <use xlink:href="#DejaVuSans-2e" transform="translate(747.65625 0)"/>
     <use xlink:href="#DejaVuSans-30" transform="translate(779.443359 0)"/>
     <use xlink:href="#DejaVuSans-31" transform="translate(843.066406 0)"/>
    </g>
    <!--      Vgs 0 3.3 0.5 -->
    <g transform="translate(262.68 208.715312) scale(0.14 -0.14)">
     <use xlink:href="#DejaVuSans-20"/>
     <use xlink:href="#DejaVuSans-20" transform="translate(31.787109 0)"/>
     <use xlink:href="#DejaVuSans-20" transform="translate(63.574219 0)"/>
     <use xlink:href="#DejaVuSans-20" transform="translate(95.361328 0)"/>
     <use xlink:href="#DejaVuSans-20" transform="translate(127.148438 0)"/>
     <use xlink:href="#DejaVuSans-56" transform="translate(158.935547 0)"/>
     <use xlink:href="#DejaVuSans-67" transform="translate(227.34375 0)"/>
     <use xlink:href="#DejaVuSans-73" transform="translate(290.820312 0)"/>
     <use xlink:href="#DejaVuSans-20" transform="translate(342.919922 0)"/>
     <use xlink:href="#DejaVuSans-30" transform="translate(374.707031 0)"/>
     <use xlink:href="#DejaVuSans-20" transform="translate(438.330078 0)"/>
     <use xlink:href="#DejaVuSans-33" transform="translate(470.117188 0)"/>
     <use xlink:href="#DejaVuSans-2e" transform="translate(533.740234 0)"/>
     <use xlink:href="#DejaVuSans-33" transform="translate(565.527344 0)"/>
     <use xlink:href="#DejaVuSans-20" transform="translate(629.150391 0)"/>
     <use xlink:href="#DejaVuSans-30" transform="translate(660.9375 0)"/>
     <use xlink:href="#DejaVuSans-2e" transform="translate(724.560547 0)"/>
     <use xlink:href="#DejaVuSans-35" transform="translate(756.347656 0)"/>
    </g>
   </g>
  </g>
 </g>
 <defs>
  <clipPath id="p498487041f">
   <rect x="0" y="-0" width="447.036" height="218.56"/>
  </clipPath>
 </defs>
</svg>
